# xmcd
#
# Track frame offsets:
#        150
#        19704
#        38332
#
# Disc length: 731 seconds
#
# Revision: 0
# Processed by: cddbd v1.5.1PL0 Copyright (c) Steve Scherf et al.
# Submitted via: ExactAudioCopy v0.95a5
#
DISCID=1302d903
DTITLE=BLONDIE - GOOD BOYS
DYEAR=1900
DGENRE=Rock
TTITLE0=GOOD BOYS(album version)
TTITLE1=GOOD BOYS(Giorgio Moroder single mix)
TTITLE2=GOOD BOYS(Scissor Sisters' Gyad Byas Myax Ya Mix)
EXTD=
EXTT0=
EXTT1=
EXTT2=
PLAYORDER=
